HIERARCHY
ROOT hip
{
  OFFSET 5.51535 103.731 -2.80141
  CHANNELS 6 Xposition Yposition Zposition Zrotation Xrotation Yrotation
  JOINT abdomen
  {
    OFFSET 0 -1.186 -1.5018
    CHANNELS 6 Xposition Yposition Zposition Zrotation Xrotation Yrotation
    JOINT abdomen2
    {
      OFFSET 0 9.964 0.2134
      CHANNELS 6 Xposition Yposition Zposition Zrotation Xrotation Yrotation
      JOINT chest
      {
        OFFSET 0 13.134 -3.2573
        CHANNELS 6 Xposition Yposition Zposition Zrotation Xrotation Yrotation
        JOINT neck
        {
          OFFSET 0 20.686 -1.6905
          CHANNELS 6 Xposition Yposition Zposition Zrotation Xrotation Yrotation
          JOINT head
          {
            OFFSET 0 7.23801 -0.1237
            CHANNELS 6 Xposition Yposition Zposition Zrotation Xrotation Yrotation
            End Site
            {
              OFFSET 0 0 0
            }
          }
        }
        JOINT lCollar
        {
          OFFSET 1.7069 20.075 5.0056
          CHANNELS 6 Xposition Yposition Zposition Zrotation Xrotation Yrotation
          JOINT lShldr
          {
            OFFSET 13.6458 -0.0470195 -4.849
            CHANNELS 6 Xposition Yposition Zposition Zrotation Xrotation Yrotation
            JOINT lForeArm
            {
              OFFSET 28.3255 -0.97589 2.2888
              CHANNELS 6 Xposition Yposition Zposition Zrotation Xrotation Yrotation
              JOINT lHand
              {
                OFFSET 22.1583 -0.529998 10.8316
                CHANNELS 6 Xposition Yposition Zposition Zrotation Xrotation Yrotation
                JOINT lThumb1
                {
                  OFFSET 0.786 0.111997 2.5817
                  CHANNELS 6 Xposition Yposition Zposition Zrotation Xrotation Yrotation
                  JOINT lThumb2
                  {
                    OFFSET 0.360097 -0.877999 4.2331
                    CHANNELS 6 Xposition Yposition Zposition Zrotation Xrotation Yrotation
                    JOINT lThumb2_End
                    {
                      OFFSET 1.8127 -1.21601 2.2227
                      CHANNELS 6 Xposition Yposition Zposition Zrotation Xrotation Yrotation
                      End Site
                      {
                        OFFSET 0.0180981 -0.012195 0.0222007
                      }
                    }
                  }
                }
                JOINT lCarpal1
                {
                  OFFSET 0.9571 1.114 1.7695
                  CHANNELS 6 Xposition Yposition Zposition Zrotation Xrotation Yrotation
                  JOINT lIndex1
                  {
                    OFFSET 4.12461 0.486992 4.1451
                    CHANNELS 6 Xposition Yposition Zposition Zrotation Xrotation Yrotation
                    JOINT lIndex2
                    {
                      OFFSET 3.4052 -1.45401 2.7682
                      CHANNELS 6 Xposition Yposition Zposition Zrotation Xrotation Yrotation
                      JOINT lIndex2_End
                      {
                        OFFSET 1.45309 -1.79499 1.2713
                        CHANNELS 6 Xposition Yposition Zposition Zrotation Xrotation Yrotation
                        End Site
                        {
                          OFFSET 0.0144979 -0.0179083 0.0126995
                        }
                      }
                    }
                  }
                  JOINT lMid1
                  {
                    OFFSET 5.6954 0.209987 2.1184
                    CHANNELS 6 Xposition Yposition Zposition Zrotation Xrotation Yrotation
                    JOINT lMid2
                    {
                      OFFSET 3.9766 -1.53999 2.3863
                      CHANNELS 6 Xposition Yposition Zposition Zrotation Xrotation Yrotation
                      JOINT lMid2_End
                      {
                        OFFSET 1.4042 -1.926 1.125
                        CHANNELS 6 Xposition Yposition Zposition Zrotation Xrotation Yrotation
                        End Site
                        {
                          OFFSET 0.013999 -0.0193044 0.011301
                        }
                      }
                    }
                  }
                }
                JOINT lCarpal2
                {
                  OFFSET 2.0956 0.66 -0.3894
                  CHANNELS 6 Xposition Yposition Zposition Zrotation Xrotation Yrotation
                  JOINT lRing1
                  {
                    OFFSET 5.0395 -0.090013 2.4971
                    CHANNELS 6 Xposition Yposition Zposition Zrotation Xrotation Yrotation
                    JOINT lRing2
                    {
                      OFFSET 3.7921 -1.55199 1.4806
                      CHANNELS 6 Xposition Yposition Zposition Zrotation Xrotation Yrotation
                      JOINT lRing2_End
                      {
                        OFFSET 1.4655 -1.808 0.9609
                        CHANNELS 6 Xposition Yposition Zposition Zrotation Xrotation Yrotation
                        End Site
                        {
                          OFFSET 0.0147015 -0.0181014 0.00959957
                        }
                      }
                    }
                  }
                  JOINT lPinky1
                  {
                    OFFSET 4.9141 -1.269 0.3591
                    CHANNELS 6 Xposition Yposition Zposition Zrotation Xrotation Yrotation
                    JOINT lPinky2
                    {
                      OFFSET 3.1477 -1.685 0.8462
                      CHANNELS 6 Xposition Yposition Zposition Zrotation Xrotation Yrotation
                      JOINT lPinky2_End
                      {
                        OFFSET 0.805498 -1.58501 0.795499
                        CHANNELS 6 Xposition Yposition Zposition Zrotation Xrotation Yrotation
                        End Site
                        {
                          OFFSET 0.00809703 -0.0157944 0.00799848
                        }
                      }
                    }
                  }
                }
              }
            }
          }
        }
        JOINT rCollar
        {
          OFFSET -1.7069 20.075 5.0056
          CHANNELS 6 Xposition Yposition Zposition Zrotation Xrotation Yrotation
          JOINT rShldr
          {
            OFFSET -13.6458 -0.0470107 -4.849
            CHANNELS 6 Xposition Yposition Zposition Zrotation Xrotation Yrotation
            JOINT rForeArm
            {
              OFFSET -28.3255 -0.975895 2.2888
              CHANNELS 6 Xposition Yposition Zposition Zrotation Xrotation Yrotation
              JOINT rHand
              {
                OFFSET -22.1583 -0.530007 10.8316
                CHANNELS 6 Xposition Yposition Zposition Zrotation Xrotation Yrotation
                JOINT rThumb1
                {
                  OFFSET -0.785997 0.112005 2.5817
                  CHANNELS 6 Xposition Yposition Zposition Zrotation Xrotation Yrotation
                  JOINT rThumb2
                  {
                    OFFSET -0.360106 -0.877994 4.2331
                    CHANNELS 6 Xposition Yposition Zposition Zrotation Xrotation Yrotation
                    JOINT rThumb2_End
                    {
                      OFFSET -1.8127 -1.216 2.2227
                      CHANNELS 6 Xposition Yposition Zposition Zrotation Xrotation Yrotation
                      End Site
                      {
                        OFFSET -0.0180972 -0.0121973 0.0222005
                      }
                    }
                  }
                }
                JOINT rCarpal1
                {
                  OFFSET -0.9571 1.114 1.7695
                  CHANNELS 6 Xposition Yposition Zposition Zrotation Xrotation Yrotation
                  JOINT rIndex1
                  {
                    OFFSET -4.1246 0.487011 4.1451
                    CHANNELS 6 Xposition Yposition Zposition Zrotation Xrotation Yrotation
                    JOINT rIndex2
                    {
                      OFFSET -3.4052 -1.45401 2.7682
                      CHANNELS 6 Xposition Yposition Zposition Zrotation Xrotation Yrotation
                      JOINT rIndex2_End
                      {
                        OFFSET -1.4531 -1.795 1.2713
                        CHANNELS 6 Xposition Yposition Zposition Zrotation Xrotation Yrotation
                        End Site
                        {
                          OFFSET -0.0145077 -0.0180048 0.0127017
                        }
                      }
                    }
                  }
                  JOINT rMid1
                  {
                    OFFSET -5.6954 0.210002 2.1184
                    CHANNELS 6 Xposition Yposition Zposition Zrotation Xrotation Yrotation
                    JOINT rMid2
                    {
                      OFFSET -3.9766 -1.54 2.3863
                      CHANNELS 6 Xposition Yposition Zposition Zrotation Xrotation Yrotation
                      JOINT rMid2_End
                      {
                        OFFSET -1.4042 -1.926 1.125
                        CHANNELS 6 Xposition Yposition Zposition Zrotation Xrotation Yrotation
                        End Site
                        {
                          OFFSET -0.0139948 -0.0192916 0.0112994
                        }
                      }
                    }
                  }
                }
                JOINT rCarpal2
                {
                  OFFSET -2.0956 0.66 -0.3894
                  CHANNELS 6 Xposition Yposition Zposition Zrotation Xrotation Yrotation
                  JOINT rRing1
                  {
                    OFFSET -5.03951 -0.0899879 2.4971
                    CHANNELS 6 Xposition Yposition Zposition Zrotation Xrotation Yrotation
                    JOINT rRing2
                    {
                      OFFSET -3.7921 -1.55201 1.4806
                      CHANNELS 6 Xposition Yposition Zposition Zrotation Xrotation Yrotation
                      JOINT rRing2_End
                      {
                        OFFSET -1.4655 -1.808 0.960901
                        CHANNELS 6 Xposition Yposition Zposition Zrotation Xrotation Yrotation
                        End Site
                        {
                          OFFSET -0.0146934 -0.0180999 0.00959832
                        }
                      }
                    }
                  }
                  JOINT rPinky1
                  {
                    OFFSET -4.91411 -1.26899 0.359202
                    CHANNELS 6 Xposition Yposition Zposition Zrotation Xrotation Yrotation
                    JOINT rPinky2
                    {
                      OFFSET -3.14769 -1.68501 0.846199
                      CHANNELS 6 Xposition Yposition Zposition Zrotation Xrotation Yrotation
                      JOINT rPinky2_End
                      {
                        OFFSET -0.805498 -1.585 0.7955
                        CHANNELS 6 Xposition Yposition Zposition Zrotation Xrotation Yrotation
                        End Site
                        {
                          OFFSET -0.00810035 -0.0158035 0.00800029
                        }
                      }
                    }
                  }
                }
              }
            }
          }
        }
      }
    }
  }
  JOINT lThigh
  {
    OFFSET 8.367 -8.2066 0.5982
    CHANNELS 6 Xposition Yposition Zposition Zrotation Xrotation Yrotation
    JOINT lShin
    {
      OFFSET 2.1923 -43.463 -0.4932
      CHANNELS 6 Xposition Yposition Zposition Zrotation Xrotation Yrotation
      JOINT lFoot
      {
        OFFSET 0.733301 -45.8593 -2.6451
        CHANNELS 6 Xposition Yposition Zposition Zrotation Xrotation Yrotation
        End Site
        {
          OFFSET 2.6618 -4.2699 12.3931
        }
      }
    }
  }
  JOINT rThigh
  {
    OFFSET -8.367 -8.2066 0.5982
    CHANNELS 6 Xposition Yposition Zposition Zrotation Xrotation Yrotation
    JOINT rShin
    {
      OFFSET -2.1923 -43.463 -0.4931
      CHANNELS 6 Xposition Yposition Zposition Zrotation Xrotation Yrotation
      JOINT rFoot
      {
        OFFSET -0.733299 -45.8593 -2.6451
        CHANNELS 6 Xposition Yposition Zposition Zrotation Xrotation Yrotation
        End Site
        {
          OFFSET -2.6618 -4.2699 12.3931
        }
      }
    }
  }
}
MOTION
Frames:	4
Frame Time:	0.0333333
5.51477 103.722 -2.80628 -3.07358e-005 1.70755e-006 -5.12264e-006 2.51098e-008 -1.186 -1.5018 0.461274 -0.00365903 0.0887533 -1.95766e-007 9.964 0.2134 0.922553 -0.00660343 0.177533 -1.13371e-007 13.134 -3.2573 0.922553 -0.00660342 0.177533 -1.15456e-007 20.686 -1.6905 0.000214333 -6.1812e-007 4.66316e-005 -2.15203e-006 7.23801 -0.1237 -3.15317e-006 -3.45863e-006 -2.94551e-006 1.7069 20.075 5.0056 0.000244073 3.38181e-006 4.1713e-005 13.6458 -0.0470121 -4.849 -75.1752 5.02863 4.06811 28.3255 -0.975891 2.2888 -9.72757 1.32798 -21.5906 22.1583 -0.52999 10.8316 0.000874295 -0.000450454 -0.00064831 0.786002 0.111997 2.5817 0.000116445 0.000149835 -3.90594e-005 0.360099 -0.877998 4.2331 -4.94757e-007 1.5314e-006 5.88957e-006 1.8127 -1.21601 2.2227 -9.68412e-006 -2.22244e-006 5.50807e-006 0.9571 1.114 1.7695 -1.98785e-015 -7.95139e-016 -0 4.12461 0.48699 4.1451 -1.01023e-005 -2.94949e-006 -7.30788e-006 3.4052 -1.45401 2.7682 -5.3089e-006 4.4753e-006 1.16699e-006 1.4531 -1.79499 1.2713 1.07735e-005 -8.02531e-006 3.44426e-006 5.69541 0.209986 2.1184 1.81817e-005 4.01731e-005 1.06324e-006 3.9766 -1.53999 2.3863 -1.47598e-005 -4.7216e-006 -4.05243e-007 1.4042 -1.926 1.125 1.1527e-005 -9.8286e-006 -7.21134e-006 2.0956 0.66 -0.3894 -1.98785e-015 -7.95139e-016 -0 5.0395 -0.0900133 2.4971 3.00162e-006 1.05148e-005 -1.08417e-005 3.7921 -1.55199 1.4806 -5.17438e-007 5.43809e-007 9.53207e-006 1.4655 -1.808 0.9609 -1.98785e-016 1.59028e-015 3.18055e-015 4.9141 -1.269 0.359103 -7.39041e-007 8.28486e-006 -2.24414e-005 3.1477 -1.685 0.8462 -1.57284e-005 1.06114e-005 -3.96257e-006 0.805497 -1.585 0.7955 4.87176e-006 -6.11627e-006 1.46331e-006 -1.7069 20.075 5.0056 0.000234646 -6.45911e-006 4.95722e-005 -13.6458 -0.0470186 -4.84899 74.2002 -5.38064 -9.00644 -28.3255 -0.975889 2.2888 3.53507 1.27765 14.8406 -22.1583 -0.530006 10.8316 -0.000805936 -0.000458799 0.000828643 -0.786 0.112004 2.5817 4.1715e-005 -3.45238e-005 -5.54805e-006 -0.360108 -0.877993 4.23311 1.38136e-006 1.98771e-005 7.7887e-006 -1.81269 -1.216 2.2227 1.46497e-005 -4.90542e-006 8.51806e-007 -0.9571 1.114 1.7695 1.19271e-015 -7.95139e-016 -0 -4.1246 0.487012 4.1451 1.87502e-005 -1.01403e-005 5.56004e-007 -3.40519 -1.45401 2.7682 5.11538e-007 4.1697e-006 7.62172e-006 -1.4531 -1.795 1.2713 -2.51827e-005 -9.37995e-006 -3.65731e-006 -5.6954 0.210003 2.1184 2.90193e-005 -2.98254e-009 2.39334e-006 -3.9766 -1.54 2.3863 3.00913e-005 2.07155e-005 5.80643e-007 -1.4042 -1.926 1.125 -9.67873e-006 7.69401e-007 -2.09101e-006 -2.0956 0.66 -0.3894 1.19271e-015 -7.95139e-016 -0 -5.03951 -0.0899858 2.4971 4.8254e-005 3.65791e-006 -4.45821e-006 -3.7921 -1.55201 1.4806 -1.05492e-006 -3.21317e-006 -2.37135e-005 -1.4655 -1.808 0.960901 6.78719e-006 1.36896e-005 2.13359e-005 -4.91411 -1.26899 0.359202 2.92378e-005 9.13441e-006 -5.27172e-006 -3.1477 -1.68501 0.846199 -2.17101e-007 -2.19002e-006 -2.61068e-006 -0.8055 -1.585 0.7955 -5.11537e-007 -4.1697e-006 -7.62172e-006 8.367 -8.2066 0.5982 -2.34261 -1.90694 0.0172654 2.1923 -43.463 -0.4932 0.00863858 3.47526 0.174114 0.7333 -45.8593 -2.6451 2.33068 -1.57484 -0.127651 -8.367 -8.20659 0.5982 -4.35608 1.58724 0.156314 -2.1923 -43.463 -0.4931 0.0064878 -0.273802 0.123484 -0.7333 -45.8593 -2.6451 4.34361 -1.33086 -0.179166 
5.51214 103.724 -2.78271 0.00793064 0.203794 -0.00235516 -8.4998e-008 -1.186 -1.5018 0.455526 -0.0474506 0.0894197 -1.07309e-007 9.964 0.2134 0.911128 -0.0941866 0.179214 2.07138e-007 13.134 -3.2573 0.911127 -0.0941866 0.179214 3.17965e-006 20.6863 -1.69052 0.031207 0.41556 -0.01632 -2.83252e-006 7.23801 -0.123701 0.025185 0.400811 -0.0181092 1.7069 20.075 5.0056 -0.00550916 0.0040499 0.0362933 13.6458 -0.0470142 -4.849 -75.1127 4.47971 4.54676 28.3255 -0.975898 2.2888 -9.85187 0.17052 -21.6216 22.1583 -0.529988 10.8316 -0.023565 -0.0724558 0.0199629 0.786002 0.111997 2.5817 -0.000427264 -0.00367697 -0.00611546 0.360097 -0.878 4.2331 0.00472435 0.000559956 0.0086656 1.8127 -1.21601 2.2227 0.00490641 0.000594627 0.00901422 0.9571 1.114 1.7695 1.19271e-015 1.19271e-015 -3.18055e-015 4.12461 0.486992 4.1451 0.0075593 -0.00429709 0.000730864 3.4052 -1.454 2.7682 -0.00752094 0.00517392 0.00706393 1.4531 -1.79499 1.2713 -0.00738019 0.00577916 0.00673229 5.6954 0.209987 2.1184 0.00654733 -0.00311428 -0.0027017 3.9766 -1.53999 2.3863 2.04618e-008 -2.75198e-005 -2.25864e-005 1.4042 -1.926 1.125 2.25162e-005 -2.031e-005 -3.89862e-006 2.0956 0.66 -0.3894 1.19271e-015 1.19271e-015 -3.18055e-015 5.0395 -0.0900136 2.4971 0.00745125 -0.00457294 -0.00396201 3.7921 -1.55199 1.4806 0.00431045 -0.00230125 -0.0020376 1.4655 -1.808 0.9609 0.00565834 -0.00302143 -0.0026908 4.9141 -1.269 0.3591 0.0125409 -0.00688542 -0.00550452 3.1477 -1.685 0.8462 0.00682949 -0.00390361 -0.00320998 0.805496 -1.58501 0.7955 0.00428153 -0.00204339 -0.00186227 -1.7069 20.075 5.0056 -0.00448842 0.0011715 0.00317837 -13.6458 -0.0470048 -4.849 74.155 -5.28992 -8.99114 -28.3255 -0.975893 2.2888 3.54139 1.51445 14.9172 -22.1583 -0.530016 10.8316 0.0483885 0.0626949 0.0110738 -0.785998 0.112005 2.5817 -0.00474687 0.00860016 -0.0227699 -0.360106 -0.877993 4.2331 -0.00176709 0.00154166 -0.00530816 -1.81269 -1.216 2.2227 -0.00435718 0.00380691 -0.0133535 -0.9571 1.114 1.7695 -2.98177e-016 0 -0 -4.12461 0.487013 4.1451 0.0407278 0.0176102 -0.0121879 -3.4052 -1.45401 2.7682 0.0274887 0.00917862 -0.00384762 -1.4531 -1.795 1.2713 0.0317102 0.0105846 -0.00446051 -5.69541 0.210001 2.1184 0.0271775 0.0160902 -0.00597308 -3.9766 -1.54 2.3863 0.0347545 0.0130856 -0.00478736 -1.40421 -1.926 1.125 0.0270423 0.0101908 -0.00372799 -2.0956 0.66 -0.3894 -2.98177e-016 0 -0 -5.03951 -0.0899877 2.4971 0.0249882 0.00504242 2.82654e-005 -3.7921 -1.55201 1.4806 0.0335679 0.0139407 -0.00608939 -1.4655 -1.808 0.960901 0.0260477 0.0108179 -0.00467213 -4.91411 -1.26899 0.359202 0.0262075 0.00951072 -0.00154901 -3.1477 -1.68501 0.846198 0.0293726 0.0131073 -0.00493758 -0.8055 -1.585 0.7955 0.0509392 0.0227127 -0.0085453 8.367 -8.20659 0.598201 -2.34986 -2.10987 0.0112479 2.1923 -43.463 -0.4932 0.00893626 3.46713 0.175306 0.7333 -45.8593 -2.6451 2.32981 -1.56742 -0.127631 -8.367 -8.2066 0.5982 -4.36101 1.38151 0.16491 -2.1923 -43.463 -0.4931 0.003389 -0.275056 0.110794 -0.733299 -45.8593 -2.6451 4.34224 -1.32624 -0.188424 
5.50625 103.727 -2.76916 0.0181174 0.412869 -0.00668207 1.9544e-007 -1.186 -1.5018 0.449625 -0.100358 0.0908612 -2.75527e-008 9.964 0.2134 0.899409 -0.199933 0.182508 -2.2324e-007 13.134 -3.2573 0.899409 -0.199933 0.182508 3.44016e-006 20.6863 -1.6905 0.0709227 0.904683 -0.0377563 -2.29168e-007 7.238 -0.1237 0.0485031 0.848414 -0.0442838 1.7069 20.075 5.0056 -0.0224181 0.0157456 0.139702 13.6458 -0.0470116 -4.849 -75.0805 3.99585 5.03748 28.3255 -0.975895 2.2888 -9.88155 -0.834332 -21.4552 22.1583 -0.52999 10.8316 -0.0929895 -0.2784 0.0805649 0.786002 0.111997 2.5817 -0.00238316 -0.0183973 -0.0297201 0.360095 -0.877999 4.2331 0.00945142 0.0011271 0.0173656 1.8127 -1.21601 2.2227 0.00985028 0.00118792 0.0180311 0.9571 1.114 1.7695 -3.97569e-016 7.95139e-016 -0 4.12461 0.486992 4.1451 0.0151403 -0.00858504 0.00146222 3.4052 -1.454 2.7682 -0.0150675 0.0103525 0.0141446 1.4531 -1.79499 1.2713 -0.0147753 0.0115652 0.0134521 5.6954 0.209988 2.1184 0.0257577 -0.0123326 -0.0106371 3.9766 -1.53999 2.3863 -1.13698e-005 -1.89326e-005 -2.50682e-005 1.4042 -1.926 1.125 8.73122e-006 -2.56511e-005 -1.32585e-006 2.0956 0.66 -0.3894 -3.97569e-016 7.95139e-016 -0 5.03951 -0.0900132 2.4971 0.0292818 -0.0180693 -0.0155532 3.7921 -1.55199 1.4806 0.00865017 -0.00458875 -0.00408073 1.4655 -1.808 0.960901 0.0112921 -0.00601707 -0.00536058 4.9141 -1.269 0.359101 0.0492844 -0.0271711 -0.0215961 3.14771 -1.685 0.846199 0.0137127 -0.00782575 -0.0064153 0.8055 -1.58501 0.7955 0.00850969 -0.00404767 -0.0036991 -1.7069 20.075 5.0056 -0.0189125 0.00477541 0.0122393 -13.6458 -0.0470064 -4.849 74.1253 -5.2004 -9.04658 -28.3255 -0.975892 2.2888 3.60171 1.65007 15.1401 -22.1583 -0.530019 10.8316 0.18876 0.245313 0.0391748 -0.785997 0.112006 2.5817 -0.0179392 0.0326702 -0.0886304 -0.360108 -0.877993 4.2331 -0.00351517 0.00305278 -0.0106378 -1.81269 -1.216 2.2227 -0.017073 0.0148114 -0.0519155 -0.9571 1.114 1.7695 -4.02539e-015 -3.97569e-016 7.95139e-016 -4.12461 0.487012 4.1451 0.149504 0.074418 -0.07184 -3.4052 -1.45401 2.7682 0.106935 0.0356945 -0.0150396 -1.4531 -1.795 1.2713 0.123357 0.0411662 -0.0173697 -5.6954 0.210001 2.1184 0.105612 0.0625985 -0.0232775 -3.97661 -1.54 2.3863 0.135062 0.0508343 -0.0186284 -1.4042 -1.926 1.125 0.105232 0.0396201 -0.0145019 -2.0956 0.66 -0.3894 -4.02539e-015 -3.97569e-016 7.95139e-016 -5.03951 -0.0899883 2.4971 0.0981723 0.037246 -0.0151904 -3.7921 -1.55201 1.4806 0.130626 0.0542158 -0.023648 -1.4655 -1.808 0.960901 0.101234 0.0420262 -0.0182718 -4.91411 -1.26899 0.359201 0.101854 0.036967 -0.00604385 -3.14769 -1.68501 0.846199 0.114259 0.0509573 -0.0192149 -0.805501 -1.585 0.795499 0.101863 0.0454307 -0.017139 8.36702 -8.20662 0.598201 -2.35772 -2.32424 0.00371323 2.1923 -43.463 -0.4932 0.00925261 3.4579 0.176574 0.733301 -45.8594 -2.6451 2.32682 -1.55271 -0.126522 -8.36702 -8.20661 0.598201 -4.36693 1.15777 0.174269 -2.1923 -43.463 -0.4931 0.00192502 -0.266248 0.0982636 -0.733301 -45.8593 -2.6451 4.34089 -1.32301 -0.197601 
5.4972 103.729 -2.76284 0.0307519 0.642082 -0.0131311 1.34167e-007 -1.18599 -1.5018 0.44278 -0.162032 0.0938388 -2.37165e-008 9.964 0.2134 0.885832 -0.32331 0.188929 -4.01526e-008 13.134 -3.2573 0.885832 -0.32331 0.188929 2.53598e-007 20.686 -1.69052 0.120407 1.46465 -0.0669551 -6.59602e-007 7.238 -0.123701 0.0706023 1.3432 -0.0807947 1.7069 20.075 5.0056 -0.0482394 0.0339334 0.302552 13.6458 -0.0470088 -4.849 -75.0701 3.57096 5.53282 28.3255 -0.975906 2.2888 -9.82618 -1.69231 -21.1093 22.1583 -0.529984 10.8316 -0.201278 -0.603198 0.179184 0.786001 0.111998 2.5817 -0.00435743 -0.0331093 -0.0533289 0.360096 -0.877999 4.2331 0.014198 0.00170021 0.0260543 1.8127 -1.21601 2.2227 0.0239592 0.00288663 0.0439267 0.9571 1.114 1.7695 2.04997e-015 1.04362e-015 6.36111e-015 4.1246 0.486991 4.1451 0.0401053 -0.0227693 0.0038748 3.4052 -1.45401 2.7682 -0.0226298 0.0155439 0.0212282 1.4531 -1.79499 1.2713 -0.0222029 0.0173549 0.0201978 5.69541 0.209987 2.1184 0.0626779 -0.0300744 -0.0258828 3.9766 -1.53999 2.3863 -4.32326e-005 -6.31436e-006 -1.2312e-007 1.4042 -1.926 1.125 -4.73363e-006 -3.30923e-005 6.72436e-006 2.0956 0.66 -0.3894 2.04997e-015 1.04362e-015 6.36111e-015 5.0395 -0.090012 2.4971 0.0603423 -0.0441751 -0.0379625 3.7921 -1.55199 1.4806 0.0129043 -0.00686807 -0.00611875 1.4655 -1.808 0.9609 0.0169086 -0.00901534 -0.00804407 4.9141 -1.269 0.3591 0.109065 -0.0601359 -0.047741 3.1477 -1.685 0.846201 0.0205294 -0.0117261 -0.00961553 0.805502 -1.58501 0.795499 0.0127485 -0.00604519 -0.00553129 -1.7069 20.075 5.0056 -0.0415189 0.0104815 0.027149 -13.6458 -0.0470054 -4.849 74.1059 -5.10572 -9.14168 -28.3255 -0.975889 2.2888 3.70994 1.69516 15.4904 -22.1583 -0.53001 10.8316 0.409656 0.536878 0.0805654 -0.785999 0.112006 2.5817 -0.0391819 0.0715365 -0.193636 -0.360103 -0.877993 4.2331 -0.00527628 0.00457183 -0.0159655 -1.8127 -1.216 2.2227 -0.0373016 0.0323916 -0.113452 -0.9571 1.114 1.7695 -2.43511e-015 0 -1.59028e-015 -4.12461 0.487012 4.1451 0.326763 0.162544 -0.1572 -3.4052 -1.45401 2.7682 0.233724 0.077968 -0.0329541 -1.4531 -1.795 1.2713 0.294258 0.0981165 -0.0415661 -5.69541 0.21 2.1184 0.230783 0.136752 -0.0509721 -3.9766 -1.54 2.3863 0.295165 0.111031 -0.0408431 -1.4042 -1.926 1.125 0.251072 0.0944413 -0.0347003 -2.0956 0.66 -0.3894 -2.43511e-015 0 -1.59028e-015 -5.03951 -0.0899866 2.4971 0.214493 0.0813162 -0.0332812 -3.7921 -1.55201 1.4806 0.282315 0.113816 -0.049029 -1.46551 -1.808 0.9609 0.241535 0.100191 -0.0437488 -4.9141 -1.26899 0.359203 0.217111 0.0771098 -0.011378 -3.14769 -1.68501 0.846199 0.249675 0.111298 -0.0421174 -0.805503 -1.585 0.7955 0.242995 0.108321 -0.0409979 8.367 -8.20662 0.5982 -2.36693 -2.56442 -0.00642041 2.1923 -43.463 -0.4932 0.00955503 3.44731 0.177902 0.733302 -45.8593 -2.6451 2.32181 -1.53122 -0.124387 -8.367 -8.2066 0.5982 -4.37447 0.907625 0.184803 -2.1923 -43.463 -0.4931 0.00166179 -0.257677 0.0852673 -0.733303 -45.8593 -2.6451 4.3349 -1.30959 -0.207796 
